<?xml version="1.0" encoding="UTF-8"?>
<svg width="130px" height="57px" viewBox="0 0 130 57" version="1.1" xmlns="http://www.w3.org/2000/svg" xmlns:xlink="http://www.w3.org/1999/xlink">
    <!-- Generator: Sketch 53.2 (72643) - https://sketchapp.com -->
    <title>分组 4</title>
    <desc>Created with Sketch.</desc>
    <defs>
        <path d="M2.27373675e-13,21.5473732 C12.2074649,27.0336196 22.5833479,29.7767427 31.1276493,29.7767427 C43.9441012,29.7767427 53.9654962,26.0354175 61.2841353,20.1331428 C68.6027744,14.2308681 79.4481099,3.15162003 94.4403536,1.70588235 C104.435183,0.742057235 114.869119,3.77212982 125.742163,10.7961001 C123.615453,13.9924884 122.035148,16.3374969 121.001249,17.8311257 C115.300144,26.0672667 109.997114,32.8903253 105.092159,38.3003013 C95.7333144,48.6227454 87.5483402,53.7665298 75.3019893,56.4419663 C63.0556383,59.1174029 47.7763387,58.2805654 35.1702802,53.8873076 C27.7937903,51.3165736 18.3350656,43.759464 12.9445737,38.344917 C9.7774683,35.1636783 5.46261038,29.564497 2.27373675e-13,21.5473732 Z" id="path-1"></path>
    </defs>
    <g id="Page-1" stroke="none" stroke-width="1" fill="none" fill-rule="evenodd">
        <g id="Pricing-Copy-29" transform="translate(-618.000000, -140.000000)">
            <g id="分组-4" transform="translate(618.000000, 139.000000)">
                <g id="路径-50" transform="translate(66.350649, 29.000000) scale(-1, 1) translate(-66.350649, -29.000000) translate(3.402597, 0.000000)">
                    <mask id="mask-2" fill="white">
                        <use xlink:href="#path-1"></use>
                    </mask>
                    <use id="Mask" fill="#2F70FF" xlink:href="#path-1"></use>
                    <g id="分组-3" mask="url(#mask-2)">
                        <g transform="translate(68.051948, 48.617647) rotate(-2.000000) translate(-68.051948, -48.617647) translate(13.610390, 18.764706)">
                            <path d="M107.215205,9.79069276 C101.788676,12.0916983 96.8013961,12.3541173 92.2533651,10.5779498 C87.7053342,8.80178235 83.756471,5.27579907 80.4067754,-4.97379915e-14 C71.9991212,10.2850324 61.7460354,17.4577505 49.647518,21.5181543 C38.5802155,25.2324703 22.0310429,24.7510012 -1.13686838e-13,20.0737469 L33.6735419,51.1876624 L96.864569,36.8786455 L107.215205,9.79069276 Z" id="路径-50" fill="#81D8D3"></path>
                            <path d="M100.32235,17.3986673 C95.6392553,18.4418899 91.9035136,18.4418899 89.1151252,17.3986673 C86.3267368,16.3554446 83.5862457,14.536281 80.8936519,11.9411765 C72.838006,20.8511935 63.2768771,27.00186 52.2102653,30.393176 C42.1217265,33.4847658 26.986703,32.7812245 6.80519481,28.2825521 L39.1540132,59.1002149 L94.6753841,46.239237 L100.32235,17.3986673 Z" id="路径-50-copy-2" fill="#E0EAFF"></path>
                        </g>
                    </g>
                </g>
                <path d="M7.12326189,9.29313913 C7.23661271,9.30052872 7.34884602,9.32008836 7.45803588,9.3514824 C8.3013197,9.59394163 8.78891239,10.4759521 8.54710465,11.3215079 L8.00371781,13.2216286 C8.82555647,15.4382573 8.82440598,16.3741888 8.00026633,16.0294229 C7.21462568,15.7007624 4.76303439,14.5270211 0.462949018,11.3215079 C0.0966889996,11.048485 -0.0949020213,9.94825866 0.139663498,9.55571074 C0.393165205,9.1314729 0.861939648,8.88494967 1.35412957,8.91703662 L7.12326189,9.29313913 Z" id="矩形-copy-3" fill="#2F70FF"></path>
                <path d="M69.4018949,13.4505998 C66.8294751,10.3343989 64.2981527,9.0296816 60.5556104,8.65532877 C66.8393068,5.14022761 75.3357121,4.78322016 80.0000922,10.1495029 C80.6094463,10.8505535 81.2211546,11.5840235 81.6552864,12.3635298 C81.6552864,12.3635298 78.3190428,14.9295077 76.9852924,15.9841972 C75.7516507,16.9597239 72.6236406,19.608909 72.6236406,19.608909 C72.1346309,17.3103455 70.981591,15.3642261 69.4018949,13.4505998 Z" id="形状" fill="#1450D7" opacity="0.949999988" transform="translate(71.105448, 12.833535) scale(-1, 1) rotate(-1.000000) translate(-71.105448, -12.833535) "></path>
            </g>
        </g>
    </g>
</svg>