<?xml version="1.0" encoding="UTF-8"?>
<svg width="226px" height="60px" viewBox="0 0 226 60" version="1.1" xmlns="http://www.w3.org/2000/svg" xmlns:xlink="http://www.w3.org/1999/xlink">
    <!-- Generator: Sketch 52.3 (67297) - http://www.bohemiancoding.com/sketch -->
    <title>切片</title>
    <desc>Created with Sketch.</desc>
    <g id="logo" stroke="none" stroke-width="1" fill="none" fill-rule="evenodd">
        <g id="分组-41-copy" transform="translate(10.000000, 6.000000)" fill="#2F70FF" fill-rule="nonzero">
            <path d="M40.3441981,31.9669559 C41.0685712,33.1119935 41.7037496,34.4906996 42.1735847,35.7904338 C38.7809213,43.5655238 31.0251056,49 22,49 L3,49 C1.34314575,49 -1.04552349e-14,47.6568542 -1.0658141e-14,46 L-1.0658141e-14,3 C-1.08610472e-14,1.34314575 1.34314575,1.70834616e-13 3,1.70530257e-13 L41,1.70530257e-13 C42.6568542,1.65811151e-13 44,1.34314575 44,3 L44,6.97342876 C43.0693703,6.5430896 42.0410622,6.14274196 41,5.8166639 L41,3 L3,3 L3,46 L22,46 C30.7749264,46 38.1605008,40.0514769 40.3441981,31.9669559 Z" id="合并形状"></path>
            <g id="分组-20" transform="translate(5.000000, 6.000000)">
                <path d="M44.4746616,34.9053462 L42.5746548,37.226978 L39.5,34.7107026 L39.5,34 C39.5,30.0588624 38.2663753,26.3074694 36.0086801,23.1813107 L38.4407496,21.4248831 C40.9266295,24.8670021 42.345712,28.9657913 42.488122,33.2795765 L44.4746616,34.9053462 Z" id="路径"></path>
                <path d="M43.1255433,36.4312995 L40.9940856,34.3201653 C44.4038984,30.8775267 46.3496715,26.2454459 46.3496715,21.3019307 C46.3496715,12.9782284 40.8038111,5.74439855 32.9158801,3.50379555 L33.7356144,0.61796193 C42.9054194,3.22268711 49.3496715,11.6283483 49.3496715,21.3019307 C49.3496715,27.0442134 47.0862646,32.4324491 43.1255433,36.4312995 Z" id="路径"></path>
                <path d="M9.85448029,13.0350433 C8.04032576,14.2808729 5.89282103,16.3698669 4.518317,18.058983 C4.64482858,17.5212098 4.79205991,16.9889516 4.95970076,16.4631153 C7.77878782,7.62053125 16.0215081,1.5 25.4475098,1.5 C27.4360717,1.5 29.3901843,1.77039445 31.2701857,2.29816524 L30.4593438,5.18650998 C28.8426177,4.73264819 27.1612934,4.5 25.4475098,4.5 C18.9915637,4.5 13.1801931,7.83705718 9.85448029,13.0350433 Z M6.99855995,24.3853145 C7.19922592,27.0982159 7.98793249,29.6973495 9.30203034,32.0391247 L6.68580101,33.5072338 C5.98664177,32.2613039 5.41529894,30.9523741 4.97882314,29.5970206 C5.44550625,27.9816525 6.19525038,25.8695901 6.99855995,24.3853145 Z" id="合并形状"></path>
                <path d="M8.5567507,30.7512782 L10.1906883,33.2672765 L1.87663052,38.6665852 L1.41995862,36.5365706 C1.10322558,35.0592605 0.942138672,33.5441962 0.942138672,32.0092773 C0.942138672,20.1351552 10.5680166,10.5092773 22.4421387,10.5092773 C29.2517547,10.5092773 35.5352285,13.698254 39.5750413,19.0184879 L37.1857837,20.8327227 C33.7073123,16.2517478 28.3036224,13.5092773 22.4421387,13.5092773 C12.2248708,13.5092773 3.94213867,21.7920095 3.94213867,32.0092773 C3.94213867,32.5762828 3.96760251,33.1398132 4.0181475,33.6987342 L8.5567507,30.7512782 Z" id="路径"></path>
            </g>
        </g>
        <path d="M80.325,19.5 L86.17,19.5 C87.3366725,19.5 88.4916609,19.6108322 89.635,19.8325 C90.778339,20.0541678 91.7933289,20.4566638 92.68,21.04 C93.5433376,21.6000028 94.1908312,22.3174956 94.6225,23.1925 C95.0541688,24.0675044 95.27,25.0416613 95.27,26.115 C95.27,27.2816725 94.9841695,28.2849958 94.4125,29.125 C93.8408305,29.9650042 92.8783401,30.6533307 91.525,31.19 C94.6983492,32.1466715 96.285,34.0949853 96.285,37.035 C96.285,38.435007 95.9291702,39.6483282 95.2175,40.675 C94.5058298,41.7016718 93.5316729,42.4833306 92.295,43.02 C91.361662,43.4166686 90.3350056,43.679166 89.215,43.8075 C88.0949944,43.935834 86.9750056,44 85.855,44 L80.325,44 L80.325,19.5 Z M92.715,37.07 C92.715,35.8333272 92.2833377,34.8358371 91.42,34.0775 C90.5566623,33.3191629 89.2850084,32.94 87.605,32.94 L83.685,32.94 L83.685,41.06 L85.54,41.06 C86.5666718,41.06 87.5174956,41.0191671 88.3925,40.9375 C89.2675044,40.8558329 90.04333,40.6516683 90.72,40.325 C91.3266697,40.0449986 91.8108315,39.6425026 92.1725,39.1175 C92.5341685,38.5924974 92.715,37.9100042 92.715,37.07 Z M91.91,26.29 C91.91,25.5433296 91.7875012,24.936669 91.5425,24.47 C91.2974988,24.003331 90.9533355,23.6300014 90.51,23.35 C89.8799968,22.9533314 89.1275044,22.7025005 88.2525,22.5975 C87.3774956,22.4924995 86.4150052,22.44 85.365,22.44 L83.685,22.44 L83.685,30 L86.03,30 C87.8733426,30 89.3141615,29.702503 90.3525,29.1075 C91.3908385,28.512497 91.91,27.5733397 91.91,26.29 Z M104.51,44 L101.325,44 L101.325,17.75 L104.51,17.75 L104.51,44 Z M122.535,41.13 C121.881663,42.1800052 121.065005,42.9908305 120.085,43.5625 C119.104995,44.1341695 118.020006,44.42 116.83,44.42 C115.593327,44.42 114.566671,44.2216687 113.75,43.825 C112.933329,43.4283314 112.268336,42.89167 111.755,42.215 C111.14833,41.3983293 110.734168,40.4241723 110.5125,39.2925 C110.290832,38.1608277 110.18,36.9300066 110.18,35.6 L110.18,26.5 L113.365,26.5 L113.365,35.25 C113.365,36.1133377 113.411666,36.9766623 113.505,37.84 C113.598334,38.7033376 113.854998,39.4499968 114.275,40.08 C114.555001,40.5000021 114.939998,40.8383321 115.43,41.095 C115.920002,41.3516679 116.549996,41.48 117.32,41.48 C118.346672,41.48 119.314995,41.1650031 120.225,40.535 C121.135005,39.9049968 121.904997,39.1000049 122.535,38.12 L122.535,26.5 L125.72,26.5 L125.72,44 L122.535,44 L122.535,41.13 Z M133.315,36.055 C133.361667,36.8016704 133.524999,37.5191632 133.805,38.2075 C134.085001,38.8958368 134.464164,39.4966641 134.9425,40.01 C135.420836,40.5233359 135.99833,40.9316651 136.675,41.235 C137.35167,41.5383348 138.109996,41.69 138.95,41.69 C140.116673,41.69 141.143329,41.4683356 142.03,41.025 C142.916671,40.5816645 143.628331,39.8583383 144.165,38.855 L146.475,40.325 C145.588329,41.725007 144.532506,42.7574967 143.3075,43.4225 C142.082494,44.0875033 140.583342,44.42 138.81,44.42 C137.409993,44.42 136.173339,44.1808357 135.1,43.7025 C134.026661,43.2241643 133.122504,42.5708375 132.3875,41.7425 C131.652496,40.9141625 131.092502,39.9458389 130.7075,38.8375 C130.322498,37.7291611 130.13,36.5333397 130.13,35.25 C130.13,33.9433268 130.351664,32.7300056 130.795,31.61 C131.238336,30.4899944 131.850829,29.5216707 132.6325,28.705 C133.414171,27.8883292 134.335828,27.246669 135.3975,26.78 C136.459172,26.313331 137.596661,26.08 138.81,26.08 C139.953339,26.08 141.014995,26.2841646 141.995,26.6925 C142.975005,27.1008354 143.82083,27.666663 144.5325,28.39 C145.24417,29.1133369 145.798331,29.9766617 146.195,30.98 C146.591669,31.9833383 146.79,33.0683275 146.79,34.235 C146.79,34.5383348 146.778333,34.859165 146.755,35.1975 C146.731667,35.535835 146.696667,35.8216655 146.65,36.055 L133.315,36.055 Z M138.845,28.81 C138.144997,28.81 137.503336,28.9324988 136.92,29.1775 C136.336664,29.4225012 135.823336,29.7549979 135.38,30.175 C134.936664,30.5950021 134.563335,31.0908305 134.26,31.6625 C133.956665,32.2341695 133.723334,32.8466634 133.56,33.5 L143.5,33.5 C143.453333,32.8699969 143.313334,32.2750028 143.08,31.715 C142.846666,31.1549972 142.525835,30.6591688 142.1175,30.2275 C141.709165,29.7958312 141.225003,29.451668 140.665,29.195 C140.104997,28.9383321 139.498337,28.81 138.845,28.81 Z M160.335,19.5 L166.95,19.5 C168.513341,19.5 170.076659,19.7158312 171.64,20.1475 C173.203341,20.5791688 174.614994,21.2791618 175.875,22.2475 C177.135006,23.2158382 178.155829,24.4699923 178.9375,26.01 C179.719171,27.5500077 180.11,29.4283222 180.11,31.645 C180.11,33.9083446 179.719171,35.8274921 178.9375,37.4025 C178.155829,38.9775079 177.129173,40.2549951 175.8575,41.235 C174.585827,42.2150049 173.139175,42.9208312 171.5175,43.3525 C169.895825,43.7841688 168.256675,44 166.6,44 L160.335,44 L160.335,19.5 Z M176.54,31.96 C176.54,28.8333177 175.647509,26.4766746 173.8625,24.89 C172.077491,23.3033254 169.56335,22.51 166.32,22.51 L163.695,22.51 L163.695,40.99 L164.85,40.99 C166.600009,40.99 168.192493,40.8383349 169.6275,40.535 C171.062507,40.2316652 172.293328,39.7300035 173.32,39.03 C174.346672,38.3299965 175.139997,37.4025058 175.7,36.2475 C176.260003,35.0924942 176.54,33.6633419 176.54,31.96 Z M192.605,26.08 C193.88834,26.08 195.072495,26.3191643 196.1575,26.7975 C197.242505,27.2758357 198.181663,27.9291625 198.975,28.7575 C199.768337,29.5858375 200.392498,30.5541611 200.8475,31.6625 C201.302502,32.7708389 201.53,33.9666603 201.53,35.25 C201.53,36.5333397 201.302502,37.7291611 200.8475,38.8375 C200.392498,39.9458389 199.768337,40.9141625 198.975,41.7425 C198.181663,42.5708375 197.242505,43.2241643 196.1575,43.7025 C195.072495,44.1808357 193.88834,44.42 192.605,44.42 C191.32166,44.42 190.137505,44.1808357 189.0525,43.7025 C187.967495,43.2241643 187.028337,42.5708375 186.235,41.7425 C185.441663,40.9141625 184.817502,39.9458389 184.3625,38.8375 C183.907498,37.7291611 183.68,36.5333397 183.68,35.25 C183.68,33.9666603 183.907498,32.7708389 184.3625,31.6625 C184.817502,30.5541611 185.441663,29.5858375 186.235,28.7575 C187.028337,27.9291625 187.967495,27.2758357 189.0525,26.7975 C190.137505,26.3191643 191.32166,26.08 192.605,26.08 Z M198.275,35.25 C198.275,34.4099958 198.135001,33.6108371 197.855,32.8525 C197.574999,32.0941629 197.184169,31.4291695 196.6825,30.8575 C196.180831,30.2858305 195.580004,29.8366683 194.88,29.51 C194.179997,29.1833317 193.421671,29.02 192.605,29.02 C191.788329,29.02 191.030004,29.1833317 190.33,29.51 C189.629996,29.8366683 189.029169,30.2858305 188.5275,30.8575 C188.025831,31.4291695 187.635001,32.0941629 187.355,32.8525 C187.074999,33.6108371 186.935,34.4099958 186.935,35.25 C186.935,36.0900042 187.074999,36.8891629 187.355,37.6475 C187.635001,38.4058371 188.025831,39.0708305 188.5275,39.6425 C189.029169,40.2141695 189.629996,40.6633317 190.33,40.99 C191.030004,41.3166683 191.788329,41.48 192.605,41.48 C193.421671,41.48 194.179997,41.3166683 194.88,40.99 C195.580004,40.6633317 196.180831,40.2141695 196.6825,39.6425 C197.184169,39.0708305 197.574999,38.4058371 197.855,37.6475 C198.135001,36.8891629 198.275,36.0900042 198.275,35.25 Z M218.785,42.705 C218.131663,43.2416693 217.338338,43.6616651 216.405,43.965 C215.471662,44.2683348 214.480005,44.42 213.43,44.42 C212.169994,44.42 210.997505,44.2041688 209.9125,43.7725 C208.827495,43.3408312 207.882504,42.722504 207.0775,41.9175 C206.272496,41.112496 205.636669,40.1441723 205.17,39.0125 C204.703331,37.8808277 204.47,36.6266735 204.47,35.25 C204.47,33.9666603 204.703331,32.7708389 205.17,31.6625 C205.636669,30.5541611 206.284163,29.5858375 207.1125,28.7575 C207.940837,27.9291625 208.909161,27.2758357 210.0175,26.7975 C211.125839,26.3191643 212.32166,26.08 213.605,26.08 C214.538338,26.08 215.419163,26.2141653 216.2475,26.4825 C217.075837,26.7508347 217.839996,27.118331 218.54,27.585 L217.035,30.21 C216.544998,29.8366648 215.985003,29.545001 215.355,29.335 C214.724997,29.124999 214.095003,29.02 213.465,29.02 C212.671663,29.02 211.930837,29.1833317 211.2425,29.51 C210.554163,29.8366683 209.947503,30.2799972 209.4225,30.84 C208.897497,31.4000028 208.483335,32.0591629 208.18,32.8175 C207.876665,33.5758371 207.725,34.3866623 207.725,35.25 C207.725,36.2066715 207.882498,37.0641629 208.1975,37.8225 C208.512502,38.5808371 208.938331,39.2341639 209.475,39.7825 C210.011669,40.3308361 210.624163,40.7508319 211.3125,41.0425 C212.000837,41.3341681 212.729996,41.48 213.5,41.48 C214.083336,41.48 214.73083,41.3633345 215.4425,41.13 C216.15417,40.8966655 216.743331,40.6050018 217.21,40.255 L218.785,42.705 Z" id="Blue-Doc-Copy-13" fill="#2F70FF"></path>
    </g>
</svg>